<?xml version="1.0" encoding="UTF-8" standalone="no"?>
<!DOCTYPE svg PUBLIC "-//W3C//DTD SVG 1.1//EN" "http://www.w3.org/Graphics/SVG/1.1/DTD/svg11.dtd">
<svg width="100%" height="100%" viewBox="0 0 892 353" version="1.1" xmlns="http://www.w3.org/2000/svg" xmlns:xlink="http://www.w3.org/1999/xlink" xml:space="preserve" xmlns:serif="http://www.serif.com/" style="fill-rule:evenodd;clip-rule:evenodd;stroke-linejoin:round;stroke-miterlimit:1.41421;">
    <g transform="matrix(1,0,0,1,-764.915,-2890.31)">
        <g id="Logo" transform="matrix(1,0,0,1,93.5655,505.253)">
            <path d="M1474.48,2608.02L1425.38,2608.02L1425.38,2590.17L1382.02,2590.81C1371.8,2590.75 1362.83,2586.1 1354.6,2578.69L1304.23,2527.04C1296.39,2519.92 1291.73,2513.96 1274.9,2514.29L1187.54,2514.85C1178.23,2514.78 1159.95,2512.92 1137.46,2518.03C1112.65,2523.67 1072.46,2544.47 1047.3,2552.28C990.422,2570.53 926.203,2572.27 860.951,2559.3C899.771,2597.58 940.935,2649.92 991.163,2684.05C1025.05,2707.08 1058.69,2715.69 1098.76,2715.24C1132.59,2710.89 1149.82,2690.5 1145.55,2660.66C1138.84,2636.36 1122.65,2630.32 1099.54,2638.83C1115.63,2641.48 1125.85,2649.38 1124.49,2667.68C1122.93,2682.23 1114.1,2691.59 1097.98,2695.75C1084.8,2697.99 1072.08,2694.91 1063.68,2674.69C1058.89,2663.17 1058.76,2616 1110.46,2609.98C1149.21,2605.46 1175.08,2644.54 1170.5,2671.58C1158.11,2744.74 1071.43,2757.66 984.145,2709C925.293,2673.24 843.261,2562.87 809.49,2548.38C805.334,2609.49 812.847,2664.37 806.371,2724.6C782.361,2668.45 750.614,2620.4 710.467,2581.13C751.005,2595.74 783.663,2596.8 788.438,2549.94C787.437,2520.88 696.299,2490.52 671.481,2506.28L673.04,2478.99C687.567,2482.75 703.555,2483.54 722.162,2478.99C778.87,2474.27 850.303,2437.33 910.853,2432.98C969.98,2428.74 1042.55,2457.38 1117.51,2481.23C1133.98,2486.47 1144.29,2491.38 1160.08,2495.48C1169.94,2498.04 1182.46,2499.75 1198.57,2500.11C1201.68,2500.15 1205.25,2500.22 1210.5,2500.26C1226.49,2500.38 1236.57,2495.67 1246.84,2481.13C1263.89,2461 1279.19,2445.41 1293.39,2432.67C1300.93,2426.14 1309.2,2423.78 1322.08,2423.11L1360.98,2423.11C1366.92,2402.97 1406.24,2397.71 1409.44,2429.49C1411.7,2451.86 1374.1,2468.07 1362.25,2437.77L1320.81,2437.14C1309.8,2438.55 1301.71,2443.77 1295.3,2451.16C1279.4,2467.67 1261.85,2484.41 1250.67,2500.26L1515.29,2498.35L1515.29,2478.58L1562.47,2506L1514.01,2532.78L1514.65,2514.29L1311.88,2514.93L1356.52,2561.48C1365.42,2570.5 1373.81,2575.71 1383.93,2575.51L1425.38,2575.51L1425.38,2559.56L1474.48,2559.56L1474.48,2608.02ZM756.005,2494.58C872.714,2565.85 993.139,2561.04 1116.23,2501.6C1042.21,2475.69 984.656,2458.87 958.73,2459.49C1010.46,2562.34 816.988,2566.57 845.671,2466.51C812.922,2475.31 783.521,2484.76 756.005,2494.58ZM883.837,2490.26C876.679,2490.13 876.586,2501.44 884.052,2501.59C891.017,2501.73 891.118,2490.39 883.837,2490.26ZM896.186,2479.2C889.028,2479.07 888.935,2490.38 896.4,2490.53C903.366,2490.67 903.467,2479.33 896.186,2479.2ZM872.186,2479.15C865.028,2479.02 864.935,2490.33 872.401,2490.47C879.366,2490.61 879.467,2479.28 872.186,2479.15ZM883.944,2467.82C876.786,2467.69 876.693,2479 884.159,2479.15C891.124,2479.28 891.225,2467.95 883.944,2467.82ZM671.711,2455.68L671.711,2436.34C688.548,2439.82 697.9,2440.7 711.009,2438.21C789.804,2423.26 849.044,2390.43 910.615,2385.19C985.475,2384.72 1116.71,2436.95 1141.41,2438.83C1145.47,2439.14 1152.85,2440.5 1158.84,2439.97C1166.95,2439.24 1172.38,2438.39 1180.08,2437.59L1183.2,2453.18C1181.87,2459.83 1154.41,2461.88 1131.43,2457.55C1098.65,2451.37 974.448,2412.56 918.724,2413.26C846.962,2414.16 783.915,2453.35 704.771,2456.92C694.274,2458.28 684.027,2457.61 671.711,2455.68Z" style="fill:url(#_Radial1);stroke:black;stroke-width:0.26px;"/>
        </g>
    </g>
    <defs>
        <radialGradient id="_Radial1" cx="0" cy="0" r="1" gradientUnits="userSpaceOnUse" gradientTransform="matrix(890.992,0,0,352.734,671.481,2561.55)"><stop offset="0" style="stop-color:rgb(219,202,44);stop-opacity:1"/><stop offset="0.26" style="stop-color:rgb(216,197,44);stop-opacity:1"/><stop offset="0.33" style="stop-color:rgb(206,183,44);stop-opacity:1"/><stop offset="0.38" style="stop-color:rgb(194,166,45);stop-opacity:1"/><stop offset="0.65" style="stop-color:rgb(174,136,46);stop-opacity:1"/><stop offset="1" style="stop-color:rgb(169,129,46);stop-opacity:1"/></radialGradient>
    </defs>
</svg>
